<svg width="269" height="269" viewBox="0 0 269 269" fill="none" xmlns="http://www.w3.org/2000/svg">
<path fill-rule="evenodd" clip-rule="evenodd" d="M154.3 24.482C154.937 38.2745 144.272 49.9717 130.48 50.6086C110.329 51.5392 90.5406 59.6668 75.1872 75.0202C42.4934 107.714 42.4956 160.836 75.3307 193.671C108.166 226.506 161.287 226.508 193.981 193.814C209.335 178.461 217.462 158.672 218.393 138.521C219.03 124.729 230.727 114.064 244.519 114.701C258.312 115.338 268.976 127.035 268.339 140.828C266.857 172.929 253.85 204.656 229.336 229.17C177.054 281.452 92.2745 281.325 39.9753 229.026C-12.3239 176.727 -12.4502 91.947 39.8318 39.6649C64.3453 15.1514 96.0728 2.14422 128.174 0.661871C141.966 0.0249656 153.663 10.6896 154.3 24.482Z" fill="white"/>
</svg>
