<svg height="1em" viewBox="0 0 17 22" fill="none" xmlns="http://www.w3.org/2000/svg">
<path d="M14.6602 21.5H2.66016C1.56016 21.5 0.660156 20.6 0.660156 19.5V9.5C0.660156 8.4 1.56016 7.5 2.66016 7.5H14.6602C15.7602 7.5 16.6602 8.4 16.6602 9.5V19.5C16.6602 20.6 15.7602 21.5 14.6602 21.5ZM10.1602 13C9.33173 12.1716 7.98858 12.1716 7.16016 13C6.33173 13.8284 6.33173 15.1716 7.16016 16C7.98858 16.8284 9.33173 16.8284 10.1602 16C10.9886 15.1716 10.9886 13.8284 10.1602 13Z" fill="#E9E9E9"/>
<path d="M14.6602 8.5H12.6602V6.5C12.6602 4.3 10.8602 2.5 8.66016 2.5C6.46016 2.5 4.66016 4.3 4.66016 6.5V8.5H2.66016V6.5C2.66016 3.1 5.26016 0.5 8.66016 0.5C12.0602 0.5 14.6602 3.1 14.6602 6.5V8.5Z" fill="#E9E9E9"/>
</svg>
