<svg width="16" height="21" viewBox="0 0 16 21" fill="none" xmlns="http://www.w3.org/2000/svg">
<path d="M14 21H2C0.9 21 0 20.1 0 19V9C0 7.9 0.9 7 2 7H14C15.1 7 16 7.9 16 9V19C16 20.1 15.1 21 14 21ZM9.5 12.5C8.67157 11.6716 7.32843 11.6716 6.5 12.5V12.5C5.67157 13.3284 5.67157 14.6716 6.5 15.5V15.5C7.32843 16.3284 8.67157 16.3284 9.5 15.5V15.5C10.3284 14.6716 10.3284 13.3284 9.5 12.5V12.5Z" fill="#343434"/>
<path d="M14 8H12V6C12 3.8 10.2 2 8 2C5.8 2 4 3.8 4 6V8H2V6C2 2.6 4.6 0 8 0C11.4 0 14 2.6 14 6V8Z" fill="#343434"/>
</svg>
