<svg width="25" height="22" viewBox="0 0 25 22" fill="none" xmlns="http://www.w3.org/2000/svg">
<path d="M3.78933 0.33664C2.74242 0.958427 0.679436 3.32845 0.660156 3.94975V4.97835C0.660156 6.28266 1.87915 7.42886 2.98583 7.42886C4.31472 7.42886 5.42189 6.32748 5.42189 5.01884C5.42189 6.32604 6.49097 7.42886 7.82034 7.42886C9.14971 7.42886 10.1822 6.32748 10.1822 5.01884C10.1822 6.32604 11.3192 7.42886 12.6481 7.42886H12.6722C14.0011 7.42886 15.1381 6.32748 15.1381 5.01884C15.1381 6.32604 16.173 7.42886 17.5 7.42886C18.8269 7.42886 19.8984 6.32748 19.8984 5.01884C19.8984 6.32604 21.007 7.42886 22.3345 7.42886C23.4431 7.42886 24.6602 6.28266 24.6602 4.97835V3.94975C24.6409 3.32796 22.5779 0.957945 21.531 0.334712C18.2803 0.222405 16.0246 0.203125 12.6621 0.203125C9.29962 0.203125 4.71575 0.256146 3.78933 0.33664ZM10.1672 6.81431C9.10681 8.66521 6.41241 8.68015 5.3544 6.82636C4.7196 7.94172 3.27359 8.37215 2.65518 8.15958C2.46864 10.0948 1.99627 19.5894 3.50977 21.1328C7.36581 22.0327 18.0702 22.0061 21.8144 21.1328C23.3399 19.5773 22.842 9.95023 22.67 8.15958C22.0472 8.37359 20.6031 7.93786 19.9707 6.82636C18.9103 8.68304 16.2183 8.6628 15.1579 6.81479C14.8157 7.41681 14.0469 8.20971 12.663 8.20971C12.1598 8.2255 11.6618 8.10402 11.2224 7.85827C10.7829 7.61253 10.4187 7.25181 10.1687 6.81479L10.1672 6.81431ZM8.16305 9.40605C8.95691 9.40605 9.6616 9.40605 10.5355 10.3595C11.9486 10.2161 13.3727 10.2161 14.7858 10.3595C15.6611 9.40942 16.3663 9.40942 17.1597 9.40942C19.682 9.40942 20.3033 13.1464 21.2023 16.372C22.0342 19.3676 20.9362 19.4409 19.5658 19.4438C17.5342 19.3681 16.4092 17.8927 16.4092 16.4173C14.5173 16.7272 11.4961 16.841 8.9116 16.4173C8.9116 17.8927 7.7866 19.3681 5.75495 19.4438C4.38509 19.4409 3.28708 19.3676 4.11903 16.372C5.01893 13.1426 5.64023 9.40942 8.16208 9.40942L8.16305 9.40605ZM12.6621 11.7129C12.6621 11.7129 10.5229 13.6781 10.1388 14.3741L11.5366 14.3177V15.5381C11.5366 15.6128 12.5652 15.5458 12.6611 15.5458C13.2227 15.5719 13.7847 15.594 13.7847 15.5381V14.3196L15.1825 14.376C14.7969 13.6781 12.6592 11.7134 12.6592 11.7134L12.6621 11.7129Z" fill="#FA5C5C"/>
</svg>
