<svg width="25" height="24" viewBox="0 0 25 24" fill="none" xmlns="http://www.w3.org/2000/svg">
<path d="M12.6602 0.296875C6.03016 0.296875 0.660156 5.66988 0.660156 12.2969C0.660156 17.5999 4.09816 22.0969 8.86516 23.6819C9.46516 23.7949 9.68516 23.4239 9.68516 23.1049C9.68516 22.8199 9.67516 22.0649 9.67016 21.0649C6.33216 21.7889 5.62816 19.4549 5.62816 19.4549C5.08216 18.0699 4.29316 17.6999 4.29316 17.6999C3.20616 16.9559 4.37716 16.9709 4.37716 16.9709C5.58216 17.0549 6.21516 18.2069 6.21516 18.2069C7.28516 20.0419 9.02416 19.5119 9.71016 19.2049C9.81816 18.4289 10.1272 17.8999 10.4702 17.5999C7.80516 17.2999 5.00416 16.2679 5.00416 11.6699C5.00416 10.3599 5.46916 9.28988 6.23916 8.44987C6.10416 8.14687 5.69916 6.92688 6.34416 5.27388C6.34416 5.27388 7.34916 4.95188 9.64416 6.50388C10.6042 6.23688 11.6242 6.10488 12.6442 6.09888C13.6642 6.10488 14.6842 6.23688 15.6442 6.50388C17.9242 4.95188 18.9292 5.27388 18.9292 5.27388C19.5742 6.92688 19.1692 8.14687 19.0492 8.44987C19.8142 9.28988 20.2792 10.3599 20.2792 11.6699C20.2792 16.2799 17.4742 17.2949 14.8042 17.5899C15.2242 17.9499 15.6142 18.6859 15.6142 19.8099C15.6142 21.4159 15.5992 22.7059 15.5992 23.0959C15.5992 23.4109 15.8092 23.7859 16.4242 23.6659C21.2252 22.0919 24.6602 17.5919 24.6602 12.2969C24.6602 5.66988 19.2872 0.296875 12.6602 0.296875Z" fill="#000"/>
</svg>
