<svg width="25" height="18" viewBox="0 0 25 18" fill="none" xmlns="http://www.w3.org/2000/svg">
<path d="M24.6602 2.45758V16.3666C24.6602 17.2706 23.9282 18.0026 23.0242 18.0026H19.2052V8.73058L12.6602 13.6406L6.11516 8.73058V18.0036H2.29616C2.08123 18.0036 1.86841 17.9612 1.66986 17.879C1.4713 17.7967 1.29091 17.6761 1.13898 17.5241C0.987046 17.372 0.86656 17.1916 0.784403 16.993C0.702245 16.7943 0.660025 16.5815 0.660157 16.3666V2.45758C0.660157 0.434578 2.96916 -0.720422 4.58716 0.493578L6.11516 1.64058L12.6602 6.54858L19.2052 1.63858L20.7332 0.493578C22.3502 -0.719422 24.6602 0.434578 24.6602 2.45758Z" fill="#EA4335"/>
</svg>
