<svg width="25" height="24" viewBox="0 0 25 24" fill="none" xmlns="http://www.w3.org/2000/svg">
<path d="M12.6602 0C9.40016 0 8.99316 0.015 7.71316 0.072C6.43516 0.132 5.56516 0.333 4.80016 0.63C4.01116 0.936 3.34116 1.347 2.67416 2.014C2.00716 2.681 1.59516 3.35 1.29016 4.14C0.993156 4.905 0.791156 5.775 0.732156 7.053C0.672156 8.333 0.660156 8.74 0.660156 12C0.660156 15.26 0.675156 15.667 0.732156 16.947C0.792156 18.224 0.993156 19.095 1.29016 19.86C1.59616 20.648 2.00716 21.319 2.67416 21.986C3.34116 22.652 4.01016 23.065 4.80016 23.37C5.56616 23.666 6.43616 23.869 7.71316 23.928C8.99316 23.988 9.40016 24 12.6602 24C15.9202 24 16.3272 23.985 17.6072 23.928C18.8842 23.868 19.7552 23.666 20.5202 23.37C21.3082 23.064 21.9792 22.652 22.6462 21.986C23.3122 21.319 23.7252 20.651 24.0302 19.86C24.3262 19.095 24.5292 18.224 24.5882 16.947C24.6482 15.667 24.6602 15.26 24.6602 12C24.6602 8.74 24.6452 8.333 24.5882 7.053C24.5282 5.776 24.3262 4.904 24.0302 4.14C23.7242 3.351 23.3122 2.681 22.6462 2.014C21.9792 1.347 21.3112 0.935 20.5202 0.63C19.7552 0.333 18.8842 0.131 17.6072 0.072C16.3272 0.012 15.9202 0 12.6602 0ZM12.6602 2.16C15.8632 2.16 16.2452 2.176 17.5102 2.231C18.6802 2.286 19.3152 2.48 19.7372 2.646C20.2992 2.863 20.6972 3.123 21.1192 3.542C21.5382 3.962 21.7982 4.361 22.0152 4.923C22.1792 5.345 22.3752 5.98 22.4282 7.15C22.4852 8.416 22.4982 8.796 22.4982 12C22.4982 15.204 22.4832 15.585 22.4242 16.85C22.3632 18.02 22.1682 18.655 22.0032 19.077C21.7792 19.639 21.5242 20.037 21.1042 20.459C20.6852 20.878 20.2802 21.138 19.7242 21.355C19.3042 21.519 18.6592 21.715 17.4892 21.768C16.2152 21.825 15.8402 21.838 12.6302 21.838C9.41916 21.838 9.04416 21.823 7.77116 21.764C6.60016 21.703 5.95516 21.508 5.53516 21.343C4.96616 21.119 4.57516 20.864 4.15616 20.444C3.73516 20.025 3.46616 19.62 3.25616 19.064C3.09116 18.644 2.89716 17.999 2.83616 16.829C2.79116 15.569 2.77516 15.18 2.77516 11.985C2.77516 8.789 2.79116 8.399 2.83616 7.124C2.89716 5.954 3.09116 5.31 3.25616 4.89C3.46616 4.32 3.73516 3.93 4.15616 3.509C4.57516 3.09 4.96616 2.82 5.53516 2.611C5.95516 2.445 6.58616 2.25 7.75616 2.19C9.03116 2.145 9.40616 2.13 12.6152 2.13L12.6602 2.16ZM12.6602 5.838C9.25516 5.838 6.49816 8.598 6.49816 12C6.49816 15.405 9.25816 18.162 12.6602 18.162C16.0652 18.162 18.8222 15.402 18.8222 12C18.8222 8.595 16.0622 5.838 12.6602 5.838ZM12.6602 16C10.4502 16 8.66016 14.21 8.66016 12C8.66016 9.79 10.4502 8 12.6602 8C14.8702 8 16.6602 9.79 16.6602 12C16.6602 14.21 14.8702 16 12.6602 16ZM20.5062 5.595C20.5062 6.39 19.8602 7.035 19.0662 7.035C18.2712 7.035 17.6262 6.389 17.6262 5.595C17.6262 4.801 18.2722 4.156 19.0662 4.156C19.8592 4.155 20.5062 4.801 20.5062 5.595Z" fill="#000"/>
</svg>
