<svg width="25" height="24" viewBox="0 0 25 24" fill="none" xmlns="http://www.w3.org/2000/svg">
<path d="M21.1072 20.452H17.5532V14.883C17.5532 13.555 17.5262 11.846 15.7012 11.846C13.8482 11.846 13.5652 13.291 13.5652 14.785V20.452H10.0112V9H13.4252V10.561H13.4712C13.9482 9.661 15.1082 8.711 16.8412 8.711C20.4422 8.711 21.1082 11.081 21.1082 14.166V20.452H21.1072ZM5.99716 7.433C4.85316 7.433 3.93416 6.507 3.93416 5.368C3.93416 4.23 4.85416 3.305 5.99716 3.305C7.13716 3.305 8.06116 4.23 8.06116 5.368C8.06116 6.507 7.13616 7.433 5.99716 7.433ZM7.77916 20.452H4.21516V9H7.77916V20.452ZM22.8852 0H2.43116C1.45216 0 0.660156 0.774 0.660156 1.729V22.271C0.660156 23.227 1.45216 24 2.43116 24H22.8822C23.8602 24 24.6602 23.227 24.6602 22.271V1.729C24.6602 0.774 23.8602 0 22.8822 0H22.8852Z" fill="#0A66C2"/>
</svg>
