<svg width="25" height="14" viewBox="0 0 25 14" fill="none" xmlns="http://www.w3.org/2000/svg">
<path d="M14.2002 6.99969C14.2055 8.80144 13.4955 10.5316 12.2262 11.8104C10.9568 13.0891 9.23191 13.8117 7.43018 13.8197C5.62844 13.8117 3.90351 13.0891 2.63417 11.8104C1.36483 10.5316 0.654869 8.80144 0.660186 6.99969C0.654869 5.19794 1.36483 3.46773 2.63417 2.18902C3.90351 0.910306 5.62844 0.187629 7.43018 0.179688C9.23191 0.187629 10.9568 0.910306 12.2262 2.18902C13.4955 3.46773 14.2055 5.19794 14.2002 6.99969ZM21.6202 6.99969C21.6202 10.5397 20.1102 13.4197 18.2402 13.4197C16.3702 13.4197 14.8502 10.5397 14.8502 6.99969C14.8502 3.45969 16.3702 0.579688 18.2402 0.579688C20.1102 0.579688 21.6202 3.45969 21.6202 6.99969ZM24.6602 6.99969C24.6602 10.1697 24.1302 12.7497 23.4702 12.7497C22.8102 12.7497 22.2802 10.1697 22.2802 6.99969C22.2802 3.82969 22.8102 1.24969 23.4702 1.24969C24.1302 1.24969 24.6602 3.82969 24.6602 6.99969Z" fill="#000"/>
</svg>
